<?xml version="1.0" standalone="no"?>
<!DOCTYPE svg PUBLIC "-//W3C//DTD SVG 20010904//EN"
 "http://www.w3.org/TR/2001/REC-SVG-20010904/DTD/svg10.dtd">
<svg version="1.0" xmlns="http://www.w3.org/2000/svg"
 width="672.000000pt" height="672.000000pt" viewBox="0 0 672.000000 672.000000"
 preserveAspectRatio="xMidYMid meet">
<metadata>
Created by potrace 1.14, written by Peter Selinger 2001-2017
</metadata>
<g transform="translate(0.000000,672.000000) scale(0.100000,-0.100000)"
fill="#000000" stroke="none">
<path d="M3189 6376 c-2 -2 -38 -7 -79 -10 -41 -3 -75 -6 -75 -7 0 -1 -9 -3
-20 -4 -47 -7 -100 -17 -106 -21 -4 -2 -24 -6 -45 -10 -21 -3 -79 -19 -129
-36 -103 -33 -107 -35 -117 -37 -4 -1 -44 -20 -88 -42 -44 -21 -83 -39 -85
-39 -23 0 -282 -177 -375 -255 -80 -68 -274 -268 -334 -344 -111 -139 -259
-400 -290 -511 -1 -3 -13 -36 -26 -75 -13 -38 -25 -72 -25 -75 -1 -3 -7 -30
-13 -60 -7 -30 -14 -65 -16 -77 -9 -46 -42 -91 -121 -168 -88 -85 -114 -128
-154 -261 -21 -69 -22 -85 -19 -495 l3 -424 29 -70 c16 -38 47 -97 69 -129 39
-58 135 -156 174 -179 60 -35 142 -76 174 -86 66 -21 83 -24 189 -27 101 -3
229 15 256 37 8 6 11 271 11 905 l0 896 -41 18 c-47 22 -110 31 -216 34 -74 1
-75 2 -71 26 7 52 109 275 182 400 37 64 127 191 172 245 56 67 191 202 252
253 43 36 195 139 233 159 13 7 41 22 61 32 151 82 345 142 566 177 64 10 391
11 469 1 57 -6 148 -22 191 -32 97 -22 153 -37 170 -44 11 -6 31 -13 45 -16
69 -19 287 -127 370 -184 156 -106 299 -242 409 -387 70 -94 167 -245 171
-269 1 -5 10 -21 19 -35 28 -41 81 -161 121 -276 l18 -51 -82 -1 c-92 0 -125
-5 -199 -30 l-52 -17 -2 -902 c-1 -497 2 -903 5 -903 4 0 38 -9 76 -19 140
-39 332 -19 461 45 51 26 141 90 178 127 37 37 117 148 117 162 0 7 3 15 8 17
4 1 20 39 35 83 l28 81 -3 424 -3 425 -33 77 c-46 107 -100 186 -176 261 -64
63 -75 85 -91 177 -6 35 -67 227 -84 265 -138 303 -233 444 -434 647 -155 157
-222 214 -366 311 -77 52 -327 184 -362 191 -8 2 -26 8 -41 14 -37 15 -194 63
-226 68 -15 3 -35 7 -44 10 -20 6 -39 9 -101 18 -27 4 -59 10 -70 13 -29 7
-441 15 -448 9z"/>
<path d="M3228 4785 c-2 -2 -26 -5 -53 -9 -82 -9 -118 -18 -165 -39 -163 -74
-290 -208 -331 -349 -20 -70 -24 -143 -22 -413 1 -154 2 -413 3 -575 1 -162 0
-428 -3 -590 -6 -303 0 -402 30 -500 19 -60 89 -169 131 -205 15 -13 38 -33
52 -45 66 -58 175 -105 272 -117 108 -14 407 -9 468 7 30 8 57 15 60 15 61 16
161 60 198 88 43 33 115 115 134 151 12 23 20 42 19 44 -1 1 5 15 12 30 8 15
17 43 21 64 l7 36 -250 0 c-138 0 -254 3 -259 6 -11 6 -10 161 0 172 4 4 28 6
53 5 25 -1 53 -1 63 -1 9 0 46 0 82 -1 36 0 70 0 75 0 92 1 151 1 203 1 47 -1
44 -8 44 105 0 78 28 70 -264 70 l-262 0 -2 75 c-1 41 2 82 6 90 7 13 46 15
264 15 250 0 256 0 257 20 2 43 -1 149 -5 152 -2 3 -119 4 -260 3 -141 0 -256
3 -257 7 -6 49 -8 114 -3 141 l5 32 258 0 259 0 3 23 c2 12 2 51 -1 87 l-5 65
-258 0 c-289 0 -263 -8 -266 83 -2 93 -18 88 273 87 l256 -1 1 46 c0 25 1 66
2 93 l2 47 -35 1 c-19 0 -138 1 -265 2 l-229 2 -3 70 c-1 39 1 76 6 83 6 11
62 14 265 14 l256 0 1 49 c0 27 1 66 1 87 l1 37 -254 1 c-140 1 -259 2 -265 3
-8 1 -12 99 -6 162 2 15 27 17 255 16 l252 -1 -3 35 c-1 19 -6 43 -11 54 -5
11 -14 34 -20 50 -21 50 -82 134 -125 169 -133 108 -299 155 -543 154 -67 0
-124 -2 -125 -3z"/>
<path d="M4447 3092 l-107 -3 7 -107 c12 -188 6 -429 -12 -537 -15 -83 -27
-143 -37 -173 -5 -18 -11 -39 -12 -45 -19 -89 -126 -271 -200 -341 -33 -30
-116 -92 -154 -114 -55 -31 -230 -89 -272 -90 -8 0 -35 -4 -60 -8 -51 -9 -348
-9 -425 0 -27 3 -70 7 -95 10 -53 4 -113 19 -190 47 -282 103 -449 369 -497
789 -9 71 -10 357 -3 485 l5 80 -177 3 -178 3 -1 -33 c-1 -18 -3 -46 -5 -63
-6 -53 -6 -408 1 -460 5 -43 18 -139 31 -227 20 -142 110 -372 197 -504 150
-226 410 -393 699 -449 105 -21 148 -28 180 -29 20 -1 40 -5 45 -10 4 -4 8
-142 9 -307 0 -265 -1 -299 -15 -300 -9 0 -178 0 -377 -1 l-361 0 0 -182 1
-181 663 2 c364 1 667 4 673 8 5 3 10 3 10 -2 0 -4 32 -8 70 -8 39 0 70 3 70
7 0 4 6 5 13 2 22 -8 147 -10 147 -2 0 4 6 5 13 2 23 -8 147 -10 147 -1 0 4 9
3 19 -2 14 -8 20 -7 23 2 2 6 4 86 4 176 l-1 165 -27 7 c-15 4 -168 7 -340 8
-172 0 -329 1 -349 1 l-36 0 0 305 c0 272 2 305 16 306 9 0 23 2 31 3 8 2 40
6 70 10 88 11 259 55 340 89 74 31 198 98 234 127 120 97 169 149 241 256 72
107 146 274 170 382 3 12 7 31 10 42 9 35 13 56 19 91 3 19 8 45 11 59 19 97
30 678 13 696 -12 11 -134 19 -251 16z"/>
</g>
</svg>
